HIERARCHY
ROOT joint_Root
{
	OFFSET 0.0 0.0 0.0
	CHANNELS 6 Xposition Yposition Zposition Zrotation Xrotation Yrotation 
	JOINT Hips
	{
		OFFSET -17.1583 93.1646 452.98
		CHANNELS 6 Xposition Yposition Zposition Zrotation Xrotation Yrotation 
		JOINT Spine
		{
			OFFSET 15.7357 0.0 0.0
			CHANNELS 6 Xposition Yposition Zposition Zrotation Xrotation Yrotation 
			JOINT Chest
			{
				OFFSET 8.98455 -0.406207 0.0
				CHANNELS 6 Xposition Yposition Zposition Zrotation Xrotation Yrotation 
				JOINT Neck
				{
					OFFSET 16.3773 0.0 0.0
					CHANNELS 6 Xposition Yposition Zposition Zrotation Xrotation Yrotation 
					JOINT Head
					{
						OFFSET 6.45672 0.0 0.0
						CHANNELS 6 Xposition Yposition Zposition Zrotation Xrotation Yrotation 
						End Site
						{
							OFFSET 0.0 0.0 0.0
						}
					}
				}
				JOINT Shoulder_L
				{
					OFFSET 12.9942 -0.242716 4.98039
					CHANNELS 6 Xposition Yposition Zposition Zrotation Xrotation Yrotation 
					JOINT UpperArm_L
					{
						OFFSET 5.34809 0.0 0.0
						CHANNELS 6 Xposition Yposition Zposition Zrotation Xrotation Yrotation 
						JOINT LowerArm_L
						{
							OFFSET 24.3286 1.87007e-05 0.0
							CHANNELS 6 Xposition Yposition Zposition Zrotation Xrotation Yrotation 
							JOINT Hand_L
							{
								OFFSET 22.2916 0.0 0.0
								CHANNELS 6 Xposition Yposition Zposition Zrotation Xrotation Yrotation 
								End Site
								{
									OFFSET 0.0 0.0 0.0
								}
							}
						}
					}
				}
				JOINT Shoulder_R
				{
					OFFSET 12.9945 -0.242716 -4.98039
					CHANNELS 6 Xposition Yposition Zposition Zrotation Xrotation Yrotation 
					JOINT UpperArm_R
					{
						OFFSET -5.34813 0.0 0.0
						CHANNELS 6 Xposition Yposition Zposition Zrotation Xrotation Yrotation 
						JOINT LowerArm_R
						{
							OFFSET -24.3289 0.000322201 0.0
							CHANNELS 6 Xposition Yposition Zposition Zrotation Xrotation Yrotation 
							JOINT Hand_R
							{
								OFFSET -22.2915 -0.000108084 0.0
								CHANNELS 6 Xposition Yposition Zposition Zrotation Xrotation Yrotation 
								End Site
								{
									OFFSET 0.0 0.0 0.0
								}
							}
						}
					}
				}
			}
		}
		JOINT UpperLeg_L
		{
			OFFSET -2.19248 -6.46944 0.0
			CHANNELS 6 Xposition Yposition Zposition Zrotation Xrotation Yrotation 
			JOINT LowerLeg_L
			{
				OFFSET 39.0811 0.0 -1.23785e-05
				CHANNELS 6 Xposition Yposition Zposition Zrotation Xrotation Yrotation 
				JOINT Foot_L
				{
					OFFSET 40.9854 0.0 -1.26872e-05
					CHANNELS 6 Xposition Yposition Zposition Zrotation Xrotation Yrotation 
					JOINT Toes_L
					{
						OFFSET 11.7543 0.0 0.0
						CHANNELS 6 Xposition Yposition Zposition Zrotation Xrotation Yrotation 
						End Site
						{
							OFFSET 0.0 0.0 0.0
						}
					}
				}
			}
		}
		JOINT UpperLeg_R
		{
			OFFSET -2.19251 6.46944 0.0
			CHANNELS 6 Xposition Yposition Zposition Zrotation Xrotation Yrotation 
			JOINT LowerLeg_R
			{
				OFFSET -39.0811 -0.00228153 -0.0401928
				CHANNELS 6 Xposition Yposition Zposition Zrotation Xrotation Yrotation 
				JOINT Foot_R
				{
					OFFSET -40.9854 0.0 0.0
					CHANNELS 6 Xposition Yposition Zposition Zrotation Xrotation Yrotation 
					JOINT Toes_R
					{
						OFFSET -11.7543 0.0 0.0
						CHANNELS 6 Xposition Yposition Zposition Zrotation Xrotation Yrotation 
						End Site
						{
							OFFSET 0.0 0.0 0.0
						}
					}
				}
			}
		}
	}
}
MOTION
Frames:	7
Frame Time:	0.0333333
0.000000 0.000000 0.000000 0.000000 0.000000 -0.000000 -4.525470 91.640500 -0.497742 83.945600 1.495340 5.105470 15.735700 0.000005 -0.000001 62.920800 86.740300 -60.651300 8.984550 -0.406207 -0.000000 -1.895600 -3.158300 4.486900 16.377300 -0.000001 -0.000001 11.921900 1.405080 2.684720 6.456720 -0.000001 -0.000000 6.000230 2.559740 10.299600 12.994200 -0.242716 4.980390 -92.332000 6.442110 -70.051000 5.348090 -0.000007 -0.000001 -71.327100 -22.953400 -0.902382 24.328600 0.000019 0.000005 35.434200 -31.064600 -125.949000 22.291600 -0.000001 0.000005 59.961800 4.187340 21.501200 12.994500 -0.242716 -4.980390 87.576300 6.815930 -70.371100 -5.348130 -0.000001 -0.000004 -65.345200 -3.569940 -1.240580 -24.328900 0.000322 -0.000009 14.626000 -13.022200 -130.808000 -22.291500 -0.000108 -0.000004 61.423500 5.531200 -7.848360 -2.192480 -6.469440 -0.000000 -170.479000 4.208480 -3.742890 39.081100 -0.000007 -0.000012 0.379434 -0.672371 29.437900 40.985400 -0.000006 -0.000013 -0.016237 10.610900 -77.020500 11.754300 -0.000000 0.000003 0.000308 0.162263 -9.995760 -2.192510 6.469440 -0.000001 -169.099000 8.381120 -175.733000 -39.081100 -0.002282 -0.040193 0.146211 -0.504532 15.812200 -40.985400 0.000008 0.000006 6.283200 0.098037 -71.370800 -11.754300 -0.000006 -0.000006 -0.010135 0.272311 -5.509820
0.000000 0.000000 0.000000 0.000000 0.000000 -0.000000 -4.526310 91.641300 -0.462051 83.932000 1.450340 5.009150 15.735700 0.000005 -0.000001 63.054400 86.734300 -60.766800 8.984550 -0.406207 -0.000000 -1.877570 -3.151350 4.523620 16.377300 -0.000001 -0.000001 11.749100 1.425280 2.614580 6.456720 -0.000001 -0.000000 5.859560 2.595020 10.194300 12.994200 -0.242716 4.980390 -92.370300 6.533190 -70.008800 5.348090 -0.000007 -0.000001 -70.448500 -20.374100 0.072958 24.328600 0.000019 0.000005 42.565200 -36.685700 -123.044000 22.291600 -0.000001 0.000005 61.921900 4.471290 17.072200 12.994500 -0.242716 -4.980390 87.537400 6.901710 -70.308300 -5.348130 -0.000001 -0.000004 -64.537500 -1.390220 -0.716764 -24.328900 0.000322 -0.000009 19.568400 -17.699100 -130.539000 -22.291500 -0.000108 -0.000004 61.322800 5.647300 -14.764000 -2.192480 -6.469440 -0.000000 -170.458000 4.204150 -3.783860 39.081100 -0.000007 -0.000012 0.377231 -0.669458 29.401500 40.985400 -0.000006 -0.000013 0.016527 10.578400 -77.028100 11.754300 -0.000000 0.000003 0.000361 0.161311 -10.034400 -2.192510 6.469440 -0.000001 -169.066000 8.296890 -175.771000 -39.081100 -0.002282 -0.040193 0.145871 -0.505228 15.755800 -40.985400 0.000008 0.000006 6.283850 0.099592 -71.377000 -11.754300 -0.000006 -0.000006 -0.010058 0.271738 -5.533300
0.000000 0.000000 0.000000 0.000000 0.000000 -0.000000 -4.524840 91.648700 -0.438037 83.930300 1.410580 4.939050 15.735700 0.000005 -0.000001 62.820200 86.725100 -60.502800 8.984550 -0.406207 -0.000000 -1.871840 -3.185860 4.582850 16.377300 -0.000001 -0.000001 11.745600 1.527550 2.507500 6.456720 -0.000001 -0.000000 5.735240 2.652280 10.034600 12.994200 -0.242716 4.980390 -92.386000 6.593210 -70.054200 5.348090 -0.000007 -0.000001 -69.753700 -18.571400 0.793561 24.328600 0.000019 0.000005 49.744300 -41.502200 -119.296000 22.291600 -0.000001 0.000005 63.468700 4.692920 13.284600 12.994500 -0.242716 -4.980390 87.533000 6.900410 -70.272300 -5.348130 -0.000001 -0.000004 -63.848600 0.833431 -0.668164 -24.328900 0.000322 -0.000009 23.562000 -21.851500 -130.480000 -22.291500 -0.000108 -0.000004 60.234600 5.681790 -20.628200 -2.192480 -6.469440 -0.000000 -170.444000 4.146390 -3.831270 39.081100 -0.000007 -0.000012 0.373004 -0.662405 29.384900 40.985400 -0.000006 -0.000013 -0.146233 10.588700 -76.974700 11.754300 -0.000000 0.000003 0.000354 0.161437 -10.029300 -2.192510 6.469440 -0.000001 -169.061000 8.305070 -175.756000 -39.081100 -0.002282 -0.040193 0.144380 -0.503551 15.648500 -40.985400 0.000008 0.000006 6.291670 0.147230 -71.396300 -11.754300 -0.000006 -0.000006 -0.010208 0.272852 -5.487700
0.000000 0.000000 0.000000 0.000000 0.000000 -0.000000 -4.517970 91.651500 -0.434089 83.955000 1.358390 4.908250 15.735700 0.000005 -0.000001 62.698100 86.717700 -60.376300 8.984550 -0.406207 -0.000000 -1.864490 -3.205310 4.591620 16.377300 -0.000001 -0.000001 11.768100 1.597000 2.480770 6.456720 -0.000001 -0.000000 5.779440 2.748650 9.915840 12.994200 -0.242716 4.980390 -92.384200 6.602430 -70.093700 5.348090 -0.000007 -0.000001 -69.566900 -18.239700 0.755030 24.328600 0.000019 0.000005 55.835600 -44.346500 -115.380000 22.291600 -0.000001 0.000005 65.779900 4.783300 11.631000 12.994500 -0.242716 -4.980390 87.534100 6.918020 -70.326200 -5.348130 -0.000001 -0.000004 -63.461300 2.309440 -0.983421 -24.328900 0.000322 -0.000009 26.673800 -25.057800 -130.132000 -22.291500 -0.000108 -0.000004 60.305000 5.676540 -23.643600 -2.192480 -6.469440 -0.000000 -170.451000 4.085820 -3.831310 39.081100 -0.000007 -0.000012 0.364948 -0.649111 29.346700 40.985400 -0.000006 -0.000013 -0.160063 10.641700 -76.934900 11.754300 -0.000000 0.000003 0.000311 0.162218 -9.997570 -2.192510 6.469440 -0.000001 -169.102000 8.306340 -175.793000 -39.081100 -0.002282 -0.040193 0.144049 -0.501351 15.678700 -40.985400 0.000008 0.000006 6.290300 0.210233 -71.417700 -11.754300 -0.000006 -0.000006 -0.010369 0.274043 -5.438970
0.000000 0.000000 0.000000 0.000000 0.000000 -0.000000 -4.518080 91.649600 -0.432956 83.955100 1.339780 4.938110 15.735700 0.000005 -0.000001 63.024200 86.709400 -60.704400 8.984550 -0.406207 -0.000000 -1.833180 -3.178820 4.588850 16.377300 -0.000001 -0.000001 11.822100 1.617150 2.447710 6.456720 -0.000001 -0.000000 5.856140 2.765590 9.954290 12.994200 -0.242716 4.980390 -92.382900 6.593920 -70.080600 5.348090 -0.000007 -0.000001 -69.898900 -18.881400 -0.104880 24.328600 0.000019 0.000005 54.627600 -43.557300 -116.068000 22.291600 -0.000001 0.000005 66.816500 4.744930 12.341500 12.994500 -0.242716 -4.980390 87.525300 6.961540 -70.374700 -5.348130 -0.000001 -0.000004 -63.563200 2.191530 -1.392360 -24.328900 0.000322 -0.000009 26.881600 -25.363200 -130.197000 -22.291500 -0.000108 -0.000004 61.181800 5.676340 -23.686600 -2.192480 -6.469440 -0.000000 -170.456000 4.110330 -3.805600 39.081100 -0.000007 -0.000012 0.366880 -0.652048 29.365500 40.985400 -0.000006 -0.000013 -0.201036 10.642300 -76.951900 11.754300 -0.000000 0.000003 0.000291 0.162569 -9.983330 -2.192510 6.469440 -0.000001 -169.112000 8.335470 -175.774000 -39.081100 -0.002282 -0.040193 0.143582 -0.499199 15.693200 -40.985400 0.000008 0.000006 6.297340 0.240146 -71.387000 -11.754300 -0.000006 -0.000006 -0.010093 0.272000 -5.522580
0.000000 0.000000 0.000000 0.000000 0.000000 -0.000000 -4.517170 91.648100 -0.429203 83.956500 1.391570 4.977730 15.735700 0.000005 -0.000001 63.243200 86.714400 -60.929000 8.984550 -0.406207 -0.000000 -1.831540 -3.151330 4.578050 16.377300 -0.000001 -0.000001 11.924900 1.586990 2.425070 6.456720 -0.000001 -0.000000 5.965830 2.757430 10.012200 12.994200 -0.242716 4.980390 -92.351400 6.510300 -70.091400 5.348090 -0.000007 -0.000001 -70.520100 -20.245900 -1.211890 24.328600 0.000019 0.000005 46.933800 -39.194600 -120.569000 22.291600 -0.000001 0.000005 65.486500 4.649400 14.056800 12.994500 -0.242716 -4.980390 87.535800 6.939420 -70.394700 -5.348130 -0.000001 -0.000004 -64.177800 0.705314 -1.881100 -24.328900 0.000322 -0.000009 24.002400 -22.508000 -130.686000 -22.291500 -0.000108 -0.000004 61.841600 5.681880 -21.494900 -2.192480 -6.469440 -0.000000 -170.461000 4.138730 -3.784450 39.081100 -0.000007 -0.000012 0.366371 -0.650875 29.375500 40.985400 -0.000006 -0.000013 -0.220459 10.623300 -76.926000 11.754300 -0.000000 0.000003 0.000335 0.161780 -10.015400 -2.192510 6.469440 -0.000001 -169.123000 8.415760 -175.716000 -39.081100 -0.002282 -0.040193 0.144182 -0.502042 15.672200 -40.985400 0.000008 0.000006 6.304010 0.262633 -71.403500 -11.754300 -0.000006 -0.000006 -0.009962 0.271020 -5.562650
0.000000 0.000000 0.000000 0.000000 0.000000 -0.000000 -4.519940 91.640700 -0.436570 83.960600 1.455880 4.983510 15.735700 0.000005 -0.000001 63.195400 86.733300 -60.874900 8.984550 -0.406207 -0.000000 -1.867690 -3.140490 4.589780 16.377300 -0.000001 -0.000001 11.990100 1.584250 2.403610 6.456720 -0.000001 -0.000000 6.117250 2.756730 9.972300 12.994200 -0.242716 4.980390 -92.318100 6.436130 -70.144300 5.348090 -0.000007 -0.000001 -71.170500 -22.244400 -2.199240 24.328600 0.000019 0.000005 37.675500 -32.734700 -125.002000 22.291600 -0.000001 0.000005 62.996000 4.469230 17.107500 12.994500 -0.242716 -4.980390 87.584400 6.821210 -70.446100 -5.348130 -0.000001 -0.000004 -65.032800 -1.287400 -2.320420 -24.328900 0.000322 -0.000009 19.997100 -18.466500 -131.036000 -22.291500 -0.000108 -0.000004 61.665300 5.666200 -16.829300 -2.192480 -6.469440 -0.000000 -170.481000 4.152110 -3.805700 39.081100 -0.000007 -0.000012 0.374625 -0.664783 29.403400 40.985400 -0.000006 -0.000013 -0.067260 10.614300 -76.992900 11.754300 -0.000000 0.000003 0.000379 0.160987 -10.047600 -2.192510 6.469440 -0.000001 -169.114000 8.389180 -175.774000 -39.081100 -0.002282 -0.040193 0.146355 -0.506713 15.762600 -40.985400 0.000008 0.000006 6.289220 0.175836 -71.432200 -11.754300 -0.000006 -0.000006 -0.010108 0.272107 -5.518170
